<?xml version="1.0" encoding="UTF-8"?>
<svg id="Layer_1" xmlns="http://www.w3.org/2000/svg" xmlns:xlink="http://www.w3.org/1999/xlink" viewBox="0 0 360 360">
  <defs>
    <style>
      .cls-1 {
        clip-path: url(#clippath-6);
      }

      .cls-2 {
        clip-path: url(#clippath-4);
      }

      .cls-3 {
        fill: #c49a6c;
      }

      .cls-4 {
        fill: #fff;
      }

      .cls-5, .cls-6 {
        fill: none;
      }

      .cls-7 {
        clip-path: url(#clippath-1);
      }

      .cls-8 {
        clip-path: url(#clippath-5);
      }

      .cls-9 {
        clip-path: url(#clippath-3);
      }

      .cls-6 {
        stroke: #603913;
        stroke-width: 7px;
      }

      .cls-10 {
        clip-path: url(#clippath-2);
      }

      .cls-11 {
        fill: #006838;
      }

      .cls-12 {
        clip-path: url(#clippath);
      }
    </style>
    <clipPath id="clippath">
      <rect class="cls-5" width="360" height="360"/>
    </clipPath>
    <clipPath id="clippath-1">
      <rect class="cls-5" width="360" height="360"/>
    </clipPath>
    <clipPath id="clippath-2">
      <rect class="cls-5" width="360" height="360"/>
    </clipPath>
    <clipPath id="clippath-3">
      <rect class="cls-5" width="360" height="360"/>
    </clipPath>
    <clipPath id="clippath-4">
      <rect class="cls-5" width="360" height="360"/>
    </clipPath>
    <clipPath id="clippath-5">
      <rect class="cls-5" x="60.41" y="84.63" width="150.43" height="158"/>
    </clipPath>
    <clipPath id="clippath-6">
      <rect class="cls-5" width="360" height="360"/>
    </clipPath>
  </defs>
  <g class="cls-12">
    <g class="cls-7">
      <path class="cls-11" d="M47.79,123.15s36.67-36.53,55.36-45.53c-4.53-9.5-3.3-19.22-3.3-19.22,10.7-3.74,33.69-13.37,33.69-13.37-25.37,40.3,70.13,4.97,132.09,10.69-41.46,29.27-70.5,74.22-67.63,108.27,25.67,3.74,82.64,6.63,82.64,6.63,5.06,18.67,23.6,31.25,23.6,31.25-100.67,55.77-143.24,115.34-143.24,115.34,0,0-30.01-104.02-113.21-194.08"/>
    </g>
    <g class="cls-10">
      <path class="cls-4" d="M61.43,125.83c-1.23-1.58-5.16-3.24,18.49-21.71,31.15-24.32,33.82-19.45,34.66-18.38l6.53,8.18c1.92,2.46,2.61,3.34.8,9.73-3.5,12.28-7.81,16.25-6.83,17.51.74.95,5.64-2.27,18.99-1.94,7.04.18,7.72,1.18,9.64,3.64l3.84,4.92c.84,1.07,7.24,7.94-25.05,30.72-24.4,17.21-25.49,12.71-26.72,11.13l-6.3-8.07c-.59-.76-1.96-2.12-.83-3.01.88-.69,15.04-5.96,31.49-18.81,1.32-1.03,9.23-6.9,7.6-8.98-1.43-1.83-9.54.65-11.55,1.2-17.06,4.8-21.31,11.57-24.61,7.35-4.14-5.3,3.41-7.85,11.96-23.55.89-1.71,5.64-8.77,4.11-10.72-1.62-2.08-10.06,4.61-11.38,5.64-16.46,12.85-23.98,25.12-24.86,25.8-1.14.89-2.13-.77-2.72-1.53l-7.27-9.12Z"/>
      <path class="cls-4" d="M121.08,210.22c-2.93-4.68,3.91-3.1,18.73-27.09,1.28-2.03,8.95-15.12,7.59-17.29-1.06-1.7-8.16,3.4-9.51,4.25-19.13,11.96-24.31,19.06-27.77,21.23-.88.55-1.42-.91-1.8-1.52l-5.68-8.64c-1.06-1.7-3.62-2.93,21.82-18.83,33.51-20.95,34.5-16.66,35.22-15.5l5.09,7.7c1.61,2.58-.59,11.12-16.14,38.48-.21.42-.88,1.31-.5,1.92.42.68,3.26-1.28,4.21-1.87,12.69-7.93,21.79-18.43,23.35-19.4.95-.59,1.68,1.03,2.48,2.31l4.38,7.39c.93,1.49,4.15,3.92-29.37,24.87-25.44,15.9-25.42,13.06-26.48,11.37l-5.61-9.36Z"/>
      <path class="cls-4" d="M209.58,230.58c1.27,3.26,1.73,4.57.68,5.29-1.12.77-12.87.85-13.35-.07-.62-1.21,1.63-5.06-1.95-12.04-2.52-4.91-8.1-8.61-14.94-5.1-4.27,2.19-5.51,3.1-4.45,5.16,2.37,4.63,5.87,3.37,10.69,12.77.4.78,1.24,2.42.03,3.04-.36.18-12.88,3.11-13.5,1.9-.36-.71-.35-3.14-1.78-5.92-3.22-6.26-8.45-7.53-14.29-4.54-6.19,3.18-14.69,11.14-15.51,11.47-.82.51-1.52-1.38-1.85-2.02l-6.03-11.44c-.91-1.78-3.36-3.22,23.33-16.92,35.16-18.05,35.78-13.69,36.4-12.48,0,0,10.21,14.68,16.52,30.89"/>
    </g>
    <g class="cls-9">
      <path class="cls-3" d="M130.58,236.79c12.59-11.77,36.43-19.79,49.32-12.85,10.03,5.41,22.4,23.25,26.91,41.43l-23.82,24.7c-7.12-7.09-14.37-15.92-19.97-18.53-5.76-2.69-12.89-3.35-19.58-4.26"/>
      <path class="cls-3" d="M143.45,198.14c5.09-2.41,11.89,2.72,7.26,13.97-4.39,10.68-10.08,12-14.54,8.92-5.93-4.1-1.23-18.87,7.28-22.89"/>
      <path class="cls-3" d="M198.75,178.27c5.58,4.4-7.05,27.6-17.02,34.04-7.14,4.6-25.19,8.65-25.37.27-.29-13.5,30.04-44.06,42.39-34.31"/>
      <path class="cls-3" d="M219.71,180.49c6.37,3.44,12.76,44.65-11.63,60.21-6.88,4.39-18.91-15.62-17.15-24.64,1.76-9.02,20.54-40,28.78-35.56"/>
      <path class="cls-3" d="M226.65,235.86c10.47,5.65-7.49,30.27-14.34,26.61-9.57-5.09,6.09-31.06,14.34-26.61"/>
    </g>
    <g class="cls-2">
      <g class="cls-8">
        <path class="cls-4" d="M61.43,125.83c-1.23-1.58-5.16-3.24,18.49-21.71,31.15-24.32,33.82-19.45,34.66-18.38l6.53,8.18c1.92,2.46,2.61,3.34.8,9.73-3.5,12.28-7.81,16.25-6.83,17.51.74.95,5.64-2.27,18.99-1.94,7.04.18,7.72,1.18,9.64,3.64l3.84,4.92c.84,1.07,7.24,7.94-25.05,30.72-24.4,17.21-25.49,12.71-26.72,11.13l-6.3-8.07c-.59-.76-1.96-2.12-.83-3.01.88-.69,15.04-5.96,31.49-18.81,1.32-1.03,9.23-6.9,7.6-8.98-1.43-1.83-9.54.65-11.55,1.2-17.06,4.8-21.31,11.57-24.61,7.35-4.14-5.3,3.41-7.85,11.96-23.55.89-1.71,5.64-8.77,4.11-10.72-1.62-2.08-10.06,4.61-11.38,5.64-16.46,12.85-23.98,25.12-24.86,25.8-1.14.89-2.13-.77-2.72-1.53l-7.27-9.12Z"/>
        <path class="cls-4" d="M121.08,210.22c-2.93-4.68,3.91-3.1,18.73-27.09,1.28-2.03,8.95-15.12,7.59-17.29-1.06-1.7-8.16,3.4-9.51,4.25-19.13,11.96-24.31,19.06-27.77,21.23-.88.55-1.42-.91-1.8-1.52l-5.68-8.64c-1.06-1.7-3.62-2.93,21.82-18.83,33.51-20.95,34.5-16.66,35.22-15.5l5.09,7.69c1.61,2.58-.59,11.13-16.14,38.48-.21.42-.88,1.31-.5,1.92.42.68,3.26-1.28,4.21-1.87,12.69-7.93,21.79-18.43,23.35-19.4.95-.59,1.68,1.03,2.48,2.31l4.38,7.39c.93,1.49,4.15,3.92-29.37,24.87-25.44,15.9-25.42,13.06-26.48,11.37l-5.61-9.36Z"/>
        <path class="cls-4" d="M209.58,230.58c1.27,3.26,1.73,4.57.68,5.29-1.12.77-12.87.85-13.35-.07-.62-1.21,1.63-5.06-1.95-12.04-2.52-4.91-8.1-8.61-14.94-5.1-4.27,2.19-5.51,3.1-4.45,5.16,2.37,4.63,5.87,3.37,10.69,12.77.4.78,1.24,2.42.03,3.04-.36.18-12.88,3.11-13.5,1.9-.36-.71-.35-3.14-1.78-5.92-3.22-6.26-8.45-7.53-14.29-4.54-6.19,3.18-14.69,11.14-15.51,11.47-.82.51-1.52-1.38-1.85-2.02l-6.03-11.44c-.91-1.78-3.36-3.22,23.33-16.92,35.16-18.05,35.78-13.69,36.4-12.48,0,0,10.21,14.68,16.52,30.89"/>
      </g>
    </g>
    <g class="cls-1">
      <path class="cls-6" d="M47.79,123.15s36.67-36.53,55.36-45.53c-4.53-9.5-3.3-19.22-3.3-19.22,10.7-3.74,33.69-13.37,33.69-13.37-25.37,40.3,70.13,4.97,132.09,10.69-41.46,29.27-70.5,74.22-67.63,108.27,25.67,3.74,82.64,6.63,82.64,6.63,5.06,18.67,23.6,31.25,23.6,31.25-100.67,55.77-143.24,115.34-143.24,115.34,0,0-30.01-104.02-113.21-194.08Z"/>
    </g>
  </g>
</svg>